<?xml version="1.0" standalone="no"?>
<!DOCTYPE svg PUBLIC "-//W3C//DTD SVG 20010904//EN"
 "http://www.w3.org/TR/2001/REC-SVG-20010904/DTD/svg10.dtd">
<svg version="1.0" xmlns="http://www.w3.org/2000/svg"
 width="300.000000pt" height="300.000000pt" viewBox="0 0 300.000000 300.000000"
 preserveAspectRatio="xMidYMid meet">
<metadata>
Created by potrace 1.10, written by Peter Selinger 2001-2011
</metadata>
<g transform="translate(0.000000,300.000000) scale(0.100000,-0.100000)"
fill="#000000" stroke="none">
<path d="M1229 2167 c-45 -30 -79 -83 -79 -122 0 -36 41 -105 111 -186 27 -31
49 -59 49 -62 0 -2 -26 2 -57 9 -83 20 -197 17 -289 -6 -198 -50 -323 -164
-385 -347 l-21 -63 -44 0 c-34 0 -51 -6 -70 -25 -24 -24 -24 -25 -8 -57 9 -18
30 -52 45 -75 16 -23 29 -49 29 -57 0 -8 -18 -43 -40 -77 -72 -112 -51 -139
108 -139 l104 0 46 -41 c26 -23 76 -56 112 -73 60 -28 75 -31 190 -34 175 -6
277 23 401 114 56 41 93 43 140 8 175 -131 440 -137 624 -15 l60 40 135 1
c195 0 216 21 140 139 -22 34 -40 69 -40 77 0 8 13 34 29 57 15 23 35 56 44
74 16 29 15 33 -2 54 -13 16 -33 24 -67 28 l-49 6 -17 84 c-44 214 -170 349
-370 396 -75 17 -226 19 -300 4 -74 -16 -178 -72 -249 -135 -33 -30 -64 -54
-69 -54 -18 0 -10 27 10 36 30 14 187 192 210 239 37 77 17 153 -52 195 -37
23 -74 25 -129 9 -31 -10 -45 -9 -78 5 -60 24 -131 21 -172 -7z m172 -38 c38
-19 43 -19 74 -5 111 53 204 -39 149 -147 -9 -18 -44 -61 -78 -97 -33 -36 -73
-81 -88 -99 -34 -40 -42 -37 -128 60 -101 113 -140 169 -140 201 0 91 113 137
211 87z m654 -294 c176 -46 288 -160 330 -337 8 -35 15 -82 15 -105 l0 -42 75
-3 75 -3 -59 -84 c-33 -47 -57 -89 -53 -95 3 -6 30 -45 59 -86 l53 -75 -157
-3 c-135 -2 -160 -5 -178 -21 -157 -140 -455 -145 -626 -10 -53 42 -118 41
-167 -2 -47 -41 -160 -95 -231 -110 -31 -6 -103 -10 -166 -7 -93 4 -119 8
-170 32 -33 15 -80 47 -105 71 l-45 44 -128 3 -127 3 53 75 c29 41 56 80 59
86 4 6 -20 48 -53 95 l-59 84 74 3 75 3 11 55 c17 82 73 185 129 237 157 147
462 182 622 71 23 -16 39 -35 39 -46 0 -19 -5 -19 -62 -12 -168 20 -325 1
-427 -50 -84 -43 -151 -144 -151 -228 l0 -28 299 0 298 0 6 61 c15 171 198
375 378 423 73 20 239 20 314 1z m-679 -228 c4 -4 -1 -25 -11 -46 -9 -22 -25
-68 -35 -103 l-17 -63 -252 -3 -251 -2 0 27 c0 79 106 166 232 193 50 10 323
8 334 -3z"/>
<path d="M1272 2088 c-33 -33 -8 -87 90 -193 l65 -69 59 63 c71 76 86 102 86
149 0 65 -64 84 -110 32 -29 -33 -59 -39 -69 -15 -13 35 -96 58 -121 33z m102
-63 c41 -32 57 -31 95 1 34 28 61 26 61 -4 0 -21 -44 -85 -79 -116 -21 -19
-22 -19 -57 15 -40 37 -94 107 -94 121 0 17 42 7 74 -17z"/>
<path d="M1799 1799 c-30 -4 -79 -17 -107 -28 -49 -20 -132 -67 -132 -75 0 -2
24 5 53 16 105 41 294 35 423 -13 106 -40 209 -177 221 -295 l6 -54 44 0 45 0
-7 68 c-10 91 -38 161 -85 215 -108 123 -297 191 -461 166z"/>
<path d="M1013 1740 c-106 -19 -221 -79 -272 -142 -32 -40 -68 -131 -77 -195
-6 -50 -5 -53 15 -53 18 0 21 6 21 39 0 168 193 310 448 328 46 3 79 10 75 14
-13 13 -154 19 -210 9z"/>
<path d="M1613 1671 c-122 -42 -170 -110 -188 -263 l-7 -58 65 0 65 0 -9 41
c-11 49 -34 96 -62 126 l-20 22 27 13 c20 8 32 9 44 1 25 -15 73 -113 79 -161
l6 -42 292 0 292 0 -8 54 c-19 145 -103 236 -249 270 -91 22 -260 20 -327 -3z
m355 -46 c75 -23 145 -92 166 -164 9 -29 13 -57 10 -62 -9 -15 -480 -11 -491
4 -6 6 -16 30 -23 52 -7 22 -28 61 -46 88 -19 26 -34 49 -34 52 0 8 58 35 97
45 56 14 259 5 321 -15z"/>
<path d="M652 1289 c-33 -21 -49 -57 -38 -84 9 -23 35 -19 29 5 -5 20 20 70
36 70 5 0 0 -37 -10 -82 -35 -155 -35 -148 -6 -148 23 0 27 6 37 58 16 79 17
82 36 75 12 -4 14 -13 9 -37 -20 -96 -20 -96 11 -96 l29 0 0 72 c0 67 -2 72
-23 77 -23 6 -22 7 13 41 49 47 61 70 38 70 -10 0 -33 -21 -52 -50 -38 -55
-49 -58 -32 -9 6 18 11 38 11 45 0 21 -50 17 -88 -7z"/>
<path d="M1501 1284 c-25 -32 -25 -33 -5 -62 15 -22 14 -24 -10 -43 -35 -27
-37 -90 -4 -113 36 -26 85 -20 119 13 16 16 29 36 29 43 0 8 14 24 30 36 34
26 42 49 11 32 -11 -5 -33 -10 -49 -10 -16 0 -36 -8 -45 -18 -19 -21 -23 -42
-5 -24 12 12 48 17 48 6 0 -14 -22 -45 -40 -54 -30 -16 -60 4 -60 39 0 29 26
61 50 61 7 0 1 11 -14 25 -32 29 -33 49 -4 69 27 19 41 11 35 -20 -5 -29 8
-40 28 -24 35 29 2 70 -55 70 -30 0 -43 -6 -59 -26z"/>
<path d="M1807 1299 c-24 -14 -49 -67 -42 -89 10 -31 35 -25 35 8 0 31 24 71
35 60 4 -4 -4 -57 -17 -118 l-25 -110 27 0 c25 0 27 4 40 73 18 106 25 108 39
13 12 -81 15 -86 37 -86 18 0 24 5 24 23 0 12 9 60 20 107 11 47 22 95 25 108
5 21 2 23 -22 20 -26 -3 -28 -7 -43 -93 -17 -98 -23 -94 -35 28 l-7 67 -37 0
c-20 0 -44 -5 -54 -11z"/>
<path d="M846 1283 c-5 -11 -1 -22 9 -30 23 -16 47 -5 43 21 -4 27 -43 34 -52
9z"/>
<path d="M2200 1248 c-7 -18 -12 -39 -11 -47 4 -26 -21 -110 -34 -115 -23 -8
-25 7 -10 70 8 32 14 62 15 66 0 15 -105 6 -124 -10 -42 -38 -61 -123 -34
-150 17 -17 53 -15 69 4 11 14 13 14 21 0 11 -20 37 -20 65 -1 19 13 22 13 27
0 7 -19 36 -19 63 0 18 13 22 13 33 0 18 -21 57 -18 81 6 24 24 19 35 -9 20
-15 -8 -23 -7 -33 6 -9 10 -10 18 -4 20 59 20 91 62 74 95 -26 49 -111 -5
-124 -79 -6 -39 -28 -63 -39 -44 -10 15 18 121 31 121 7 0 13 5 13 10 0 6 -5
10 -10 10 -6 0 -8 11 -4 25 5 22 3 25 -19 25 -19 0 -28 -8 -37 -32z m-106 -97
c-11 -68 -54 -94 -54 -33 0 35 38 98 51 85 6 -6 7 -28 3 -52z m276 44 c0 -21
-43 -62 -48 -47 -5 15 24 62 38 62 6 0 10 -7 10 -15z"/>
<path d="M837 1223 c-2 -5 -10 -38 -17 -76 -10 -53 -10 -70 0 -82 16 -19 40
-19 68 1 12 8 22 10 22 5 0 -20 50 -24 69 -7 16 14 19 15 24 2 4 -10 22 -14
65 -14 l59 0 12 68 c12 65 33 96 45 65 7 -20 36 -7 36 16 0 25 -26 35 -45 19
-10 -9 -15 -9 -15 -1 0 6 -11 11 -24 11 -22 0 -26 -6 -37 -60 -13 -65 -30 -97
-47 -86 -7 4 -6 24 4 64 19 83 20 81 -36 80 -62 0 -95 -24 -112 -81 -14 -51
-28 -71 -40 -59 -8 8 1 69 18 125 4 13 0 17 -20 17 -14 0 -27 -3 -29 -7z m175
-39 c-11 -68 -24 -94 -43 -94 -19 0 -20 4 -14 38 8 45 32 85 48 79 7 -2 11
-13 9 -23z"/>
<path d="M1255 1209 c-29 -24 -50 -86 -41 -123 8 -33 49 -45 75 -22 16 15 19
15 31 1 16 -19 34 -19 51 1 10 13 10 17 -1 24 -11 7 -12 18 -2 60 18 79 18 79
-38 78 -34 0 -58 -6 -75 -19z m62 -63 c-11 -48 -30 -67 -48 -49 -15 15 7 90
29 102 26 15 32 1 19 -53z"/>
<path d="M780 1000 c0 -16 165 -90 225 -101 69 -13 157 -7 233 16 71 22 63 27
-13 9 -113 -26 -227 -10 -316 45 -44 27 -129 47 -129 31z"/>
<path d="M968 998 c17 -16 122 -38 181 -38 67 0 198 23 212 37 5 5 -84 8 -196
8 -112 0 -201 -3 -197 -7z"/>
<path d="M1650 1000 c0 -12 111 -58 170 -71 106 -23 275 7 340 59 21 17 19 17
-57 15 -43 -2 -102 -8 -132 -14 -78 -16 -228 -14 -278 4 -24 8 -43 11 -43 7z"/>
</g>
</svg>
